HIERARCHY
ROOT mixamorig:Hips
{
	OFFSET -0.000008 104.274872 1.554316
	CHANNELS 6 Xposition Yposition Zposition Xrotation Yrotation Zrotation
	JOINT mixamorig:Spine
	{
		OFFSET -0.000005 10.181595 0.131519
		CHANNELS 6 Xposition Yposition Zposition Xrotation Yrotation Zrotation
		JOINT mixamorig:Spine1
		{
			OFFSET -0.000000 9.893959 -1.470707
			CHANNELS 6 Xposition Yposition Zposition Xrotation Yrotation Zrotation
			JOINT mixamorig:Spine2
			{
				OFFSET -0.000000 9.220757 -1.370641
				CHANNELS 6 Xposition Yposition Zposition Xrotation Yrotation Zrotation
				JOINT mixamorig:Neck
				{
					OFFSET 0.000001 16.740417 -2.049036
					CHANNELS 6 Xposition Yposition Zposition Xrotation Yrotation Zrotation
					JOINT mixamorig:Head
					{
						OFFSET 0.000000 9.617874 1.685006
						CHANNELS 6 Xposition Yposition Zposition Xrotation Yrotation Zrotation
						JOINT mixamorig:HeadTop_End
						{
							OFFSET 0.000002 22.037354 7.501101
							CHANNELS 6 Xposition Yposition Zposition Xrotation Yrotation Zrotation
							End Site
							{
								OFFSET 0.000168 2310.654297 -282.823242
							}
						}
					}
				}
				JOINT mixamorig:RightShoulder
				{
					OFFSET -4.569970 11.014908 -2.160885
					CHANNELS 6 Xposition Yposition Zposition Xrotation Yrotation Zrotation
					JOINT mixamorig:RightArm
					{
						OFFSET -10.592851 -0.524811 -2.232101
						CHANNELS 6 Xposition Yposition Zposition Xrotation Yrotation Zrotation
						JOINT mixamorig:RightForeArm
						{
							OFFSET -27.841511 0.000031 -0.000004
							CHANNELS 6 Xposition Yposition Zposition Xrotation Yrotation Zrotation
							JOINT mixamorig:RightHand
							{
								OFFSET -28.328831 -0.000015 0.000015
								CHANNELS 6 Xposition Yposition Zposition Xrotation Yrotation Zrotation
								JOINT mixamorig:RightHandThumb1
								{
									OFFSET -2.464806 -1.573990 2.681852
									CHANNELS 6 Xposition Yposition Zposition Xrotation Yrotation Zrotation
									JOINT mixamorig:RightHandThumb2
									{
										OFFSET -3.215179 -1.872803 1.924282
										CHANNELS 6 Xposition Yposition Zposition Xrotation Yrotation Zrotation
										JOINT mixamorig:RightHandThumb3
										{
											OFFSET -2.654831 -1.527969 1.512609
											CHANNELS 6 Xposition Yposition Zposition Xrotation Yrotation Zrotation
											JOINT mixamorig:RightHandThumb4
											{
												OFFSET -2.018814 -1.152008 1.108052
												CHANNELS 6 Xposition Yposition Zposition Xrotation Yrotation Zrotation
												End Site
												{
													OFFSET -188.809540 -114.533607 132.431396
												}
											}
										}
									}
								}
								JOINT mixamorig:RightHandIndex1
								{
									OFFSET -9.108284 -0.517868 2.259835
									CHANNELS 6 Xposition Yposition Zposition Xrotation Yrotation Zrotation
									JOINT mixamorig:RightHandIndex2
									{
										OFFSET -3.699989 0.000000 0.001215
										CHANNELS 6 Xposition Yposition Zposition Xrotation Yrotation Zrotation
										JOINT mixamorig:RightHandIndex3
										{
											OFFSET -2.850006 0.000031 -0.000522
											CHANNELS 6 Xposition Yposition Zposition Xrotation Yrotation Zrotation
											JOINT mixamorig:RightHandIndex4
											{
												OFFSET -2.772186 -0.000015 -0.000020
												CHANNELS 6 Xposition Yposition Zposition Xrotation Yrotation Zrotation
												End Site
												{
													OFFSET -277.218445 0.000000 -0.050231
												}
											}
										}
									}
								}
								JOINT mixamorig:RightHandMiddle1
								{
									OFFSET -9.532516 -0.000031 -0.000023
									CHANNELS 6 Xposition Yposition Zposition Xrotation Yrotation Zrotation
									JOINT mixamorig:RightHandMiddle2
									{
										OFFSET -3.700005 -0.000015 0.003713
										CHANNELS 6 Xposition Yposition Zposition Xrotation Yrotation Zrotation
										JOINT mixamorig:RightHandMiddle3
										{
											OFFSET -2.949974 0.000015 -0.002054
											CHANNELS 6 Xposition Yposition Zposition Xrotation Yrotation Zrotation
											JOINT mixamorig:RightHandMiddle4
											{
												OFFSET -2.946640 0.000000 -0.000156
												CHANNELS 6 Xposition Yposition Zposition Xrotation Yrotation Zrotation
												End Site
												{
													OFFSET -294.664337 0.000000 -0.113670
												}
											}
										}
									}
								}
								JOINT mixamorig:RightHandRing1
								{
									OFFSET -9.103600 -0.043076 -1.865134
									CHANNELS 6 Xposition Yposition Zposition Xrotation Yrotation Zrotation
									JOINT mixamorig:RightHandRing2
									{
										OFFSET -3.379288 0.000000 -0.001055
										CHANNELS 6 Xposition Yposition Zposition Xrotation Yrotation Zrotation
										JOINT mixamorig:RightHandRing3
										{
											OFFSET -2.889687 -0.000015 0.000379
											CHANNELS 6 Xposition Yposition Zposition Xrotation Yrotation Zrotation
											JOINT mixamorig:RightHandRing4
											{
												OFFSET -2.638809 -0.000015 0.000941
												CHANNELS 6 Xposition Yposition Zposition Xrotation Yrotation Zrotation
												End Site
												{
													OFFSET -263.880371 0.000000 0.516020
												}
											}
										}
									}
								}
								JOINT mixamorig:RightHandPinky1
								{
									OFFSET -8.076683 -0.486710 -3.806280
									CHANNELS 6 Xposition Yposition Zposition Xrotation Yrotation Zrotation
									JOINT mixamorig:RightHandPinky2
									{
										OFFSET -3.600014 -0.000015 -0.003747
										CHANNELS 6 Xposition Yposition Zposition Xrotation Yrotation Zrotation
										JOINT mixamorig:RightHandPinky3
										{
											OFFSET -2.099983 0.000000 -0.005739
											CHANNELS 6 Xposition Yposition Zposition Xrotation Yrotation Zrotation
											JOINT mixamorig:RightHandPinky4
											{
												OFFSET -2.115768 -0.000031 -0.003680
												CHANNELS 6 Xposition Yposition Zposition Xrotation Yrotation Zrotation
												End Site
												{
													OFFSET -211.577087 0.000000 -0.350686
												}
											}
										}
									}
								}
							}
						}
					}
				}
				JOINT mixamorig:LeftShoulder
				{
					OFFSET 4.570447 11.014725 -2.160855
					CHANNELS 6 Xposition Yposition Zposition Xrotation Yrotation Zrotation
					JOINT mixamorig:LeftArm
					{
						OFFSET 10.592371 -0.524597 -2.232119
						CHANNELS 6 Xposition Yposition Zposition Xrotation Yrotation Zrotation
						JOINT mixamorig:LeftForeArm
						{
							OFFSET 27.841532 -0.000031 0.000026
							CHANNELS 6 Xposition Yposition Zposition Xrotation Yrotation Zrotation
							JOINT mixamorig:LeftHand
							{
								OFFSET 28.328846 -0.000061 0.000022
								CHANNELS 6 Xposition Yposition Zposition Xrotation Yrotation Zrotation
								JOINT mixamorig:LeftHandThumb1
								{
									OFFSET 2.466141 -1.576172 2.681732
									CHANNELS 6 Xposition Yposition Zposition Xrotation Yrotation Zrotation
									JOINT mixamorig:LeftHandThumb2
									{
										OFFSET 3.217812 -1.872070 1.916482
										CHANNELS 6 Xposition Yposition Zposition Xrotation Yrotation Zrotation
										JOINT mixamorig:LeftHandThumb3
										{
											OFFSET 2.656029 -1.528778 1.514513
											CHANNELS 6 Xposition Yposition Zposition Xrotation Yrotation Zrotation
											JOINT mixamorig:LeftHandThumb4
											{
												OFFSET 2.020889 -1.154053 1.115139
												CHANNELS 6 Xposition Yposition Zposition Xrotation Yrotation Zrotation
												End Site
												{
													OFFSET 190.885437 -115.081749 130.048782
												}
											}
										}
									}
								}
								JOINT mixamorig:LeftHandIndex1
								{
									OFFSET 9.109314 -0.518021 2.259871
									CHANNELS 6 Xposition Yposition Zposition Xrotation Yrotation Zrotation
									JOINT mixamorig:LeftHandIndex2
									{
										OFFSET 3.699989 0.000000 -0.000322
										CHANNELS 6 Xposition Yposition Zposition Xrotation Yrotation Zrotation
										JOINT mixamorig:LeftHandIndex3
										{
											OFFSET 2.850006 0.000000 0.000352
											CHANNELS 6 Xposition Yposition Zposition Xrotation Yrotation Zrotation
											JOINT mixamorig:LeftHandIndex4
											{
												OFFSET 2.774864 -0.000031 -0.000027
												CHANNELS 6 Xposition Yposition Zposition Xrotation Yrotation Zrotation
												End Site
												{
													OFFSET 277.486267 0.000000 -0.009857
												}
											}
										}
									}
								}
								JOINT mixamorig:LeftHandMiddle1
								{
									OFFSET 9.533394 0.000061 0.000044
									CHANNELS 6 Xposition Yposition Zposition Xrotation Yrotation Zrotation
									JOINT mixamorig:LeftHandMiddle2
									{
										OFFSET 3.699989 -0.000015 -0.000231
										CHANNELS 6 Xposition Yposition Zposition Xrotation Yrotation Zrotation
										JOINT mixamorig:LeftHandMiddle3
										{
											OFFSET 2.949997 -0.000015 -0.000059
											CHANNELS 6 Xposition Yposition Zposition Xrotation Yrotation Zrotation
											JOINT mixamorig:LeftHandMiddle4
											{
												OFFSET 2.952896 0.000031 0.000063
												CHANNELS 6 Xposition Yposition Zposition Xrotation Yrotation Zrotation
												End Site
												{
													OFFSET 295.289337 0.000000 0.022810
												}
											}
										}
									}
								}
								JOINT mixamorig:LeftHandRing1
								{
									OFFSET 9.104523 -0.042999 -1.865074
									CHANNELS 6 Xposition Yposition Zposition Xrotation Yrotation Zrotation
									JOINT mixamorig:LeftHandRing2
									{
										OFFSET 3.150009 -0.000031 0.000043
										CHANNELS 6 Xposition Yposition Zposition Xrotation Yrotation Zrotation
										JOINT mixamorig:LeftHandRing3
										{
											OFFSET 2.949982 -0.000015 0.000040
											CHANNELS 6 Xposition Yposition Zposition Xrotation Yrotation Zrotation
											JOINT mixamorig:LeftHandRing4
											{
												OFFSET 2.644348 0.000000 0.000057
												CHANNELS 6 Xposition Yposition Zposition Xrotation Yrotation Zrotation
												End Site
												{
													OFFSET 264.434631 0.000000 0.012105
												}
											}
										}
									}
								}
								JOINT mixamorig:LeftHandPinky1
								{
									OFFSET 8.077789 -0.486847 -3.806259
									CHANNELS 6 Xposition Yposition Zposition Xrotation Yrotation Zrotation
									JOINT mixamorig:LeftHandPinky2
									{
										OFFSET 3.599953 0.000031 0.014727
										CHANNELS 6 Xposition Yposition Zposition Xrotation Yrotation Zrotation
										JOINT mixamorig:LeftHandPinky3
										{
											OFFSET 2.100021 0.000015 0.007705
											CHANNELS 6 Xposition Yposition Zposition Xrotation Yrotation Zrotation
											JOINT mixamorig:LeftHandPinky4
											{
												OFFSET 2.125504 0.000031 0.007517
												CHANNELS 6 Xposition Yposition Zposition Xrotation Yrotation Zrotation
												End Site
												{
													OFFSET 212.550781 0.000000 0.625752
												}
											}
										}
									}
								}
							}
						}
					}
				}
			}
		}
	}
	JOINT mixamorig:RightUpLeg
	{
		OFFSET -8.207787 -6.751648 -1.599560
		CHANNELS 6 Xposition Yposition Zposition Xrotation Yrotation Zrotation
		JOINT mixamorig:RightLeg
		{
			OFFSET -0.000002 -44.370117 0.345942
			CHANNELS 6 Xposition Yposition Zposition Xrotation Yrotation Zrotation
			JOINT mixamorig:RightFoot
			{
				OFFSET 0.000003 -44.423679 -3.043532
				CHANNELS 6 Xposition Yposition Zposition Xrotation Yrotation Zrotation
				JOINT mixamorig:RightToeBase
				{
					OFFSET -0.000002 -8.728671 10.710558
					CHANNELS 6 Xposition Yposition Zposition Xrotation Yrotation Zrotation
					JOINT mixamorig:RightToe_End
					{
						OFFSET -0.000001 -0.000679 9.278119
						CHANNELS 6 Xposition Yposition Zposition Xrotation Yrotation Zrotation
						End Site
						{
							OFFSET 0.000000 -0.067690 927.812134
						}
					}
				}
			}
		}
	}
	JOINT mixamorig:LeftUpLeg
	{
		OFFSET 8.207793 -6.751686 -1.599556
		CHANNELS 6 Xposition Yposition Zposition Xrotation Yrotation Zrotation
		JOINT mixamorig:LeftLeg
		{
			OFFSET -0.000004 -44.370014 0.346954
			CHANNELS 6 Xposition Yposition Zposition Xrotation Yrotation Zrotation
			JOINT mixamorig:LeftFoot
			{
				OFFSET -0.000001 -44.423672 -3.044401
				CHANNELS 6 Xposition Yposition Zposition Xrotation Yrotation Zrotation
				JOINT mixamorig:LeftToeBase
				{
					OFFSET -0.000002 -8.728669 10.710558
					CHANNELS 6 Xposition Yposition Zposition Xrotation Yrotation Zrotation
					JOINT mixamorig:LeftToe_End
					{
						OFFSET -0.000003 -0.000679 9.278133
						CHANNELS 6 Xposition Yposition Zposition Xrotation Yrotation Zrotation
						End Site
						{
							OFFSET 0.000000 -0.068021 927.813477
						}
					}
				}
			}
		}
	}
}
MOTION
Frames: 3
Frame Time: 0.033333
0.000006 104.270477 1.554256 0.000010 0.000003 -0.000113 -0.000005 10.181587 0.131522 0.000001 -0.000003 0.000084 -0.000000 9.893967 -1.470711 0.000001 0.000000 -0.000000 -0.000000 9.220802 -1.370642 0.000000 -0.000000 -0.000000 0.000001 16.740433 -2.049030 0.000000 -0.000000 -0.000000 0.000000 9.617859 1.685014 0.000000 0.000000 0.000000 0.000002 22.037384 7.501101 0.000000 -0.000000 0.000000 -4.569968 11.014880 -2.160881 0.000008 0.000001 -0.000038 -10.592871 -0.524684 -2.232022 70.493822 8.898545 -6.294496 -27.841530 -0.000001 0.000520 -54.628461 117.837593 81.177864 -28.328835 0.000022 0.000023 -0.000321 -0.000046 0.000006 -2.464385 -1.573873 2.682360 -37.832326 -153.080044 10.785257 -3.215237 -1.872503 1.924632 148.787707 34.086278 30.060711 -2.654974 -1.527886 1.513069 148.834467 27.261785 -30.694071 -2.018841 -1.152004 1.108062 -0.000003 0.000006 0.000002 -9.108372 -0.517563 2.260162 108.142754 15.735011 -21.656220 -3.700078 0.000311 0.001546 104.387147 12.967891 -16.637263 -2.850080 0.000380 -0.000237 103.696991 9.719269 -12.353024 -2.772149 -0.000017 -0.000022 -0.000000 -0.000001 0.000000 -9.532597 0.000259 0.000305 106.303247 15.871983 -21.263473 -3.700062 0.000343 0.004022 105.905594 11.821859 -15.494737 -2.950048 0.000333 -0.001747 108.293694 10.550719 -14.553137 -2.946642 0.000004 -0.000162 -0.000000 -0.000000 -0.000002 -9.103696 -0.042756 -1.864811 105.554618 17.164492 -22.414333 -3.379336 0.000321 -0.000736 105.855050 9.021573 -11.944883 -2.889748 0.000363 0.000705 111.227240 6.275872 -9.226164 -2.638829 -0.000015 0.000942 -0.000000 -0.000000 -0.000004 -8.076744 -0.486387 -3.805961 100.026734 18.815274 -22.168912 -3.600045 0.000285 -0.003460 102.697597 7.981657 -9.529985 -2.099995 0.000329 -0.005446 105.621069 3.764936 -4.679172 -2.115783 -0.000071 -0.003682 -0.000000 0.000001 -0.000007 4.570446 11.014691 -2.160851 -0.000018 0.000010 -0.000021 10.592470 -0.524562 -2.232355 37.389176 -58.243523 21.350748 27.841740 -0.000074 -0.000082 227.118529 -69.016541 244.769910 28.328842 -0.000029 0.000024 0.000020 -0.000089 -0.000001 2.466060 -1.576191 2.681851 18.477666 109.382932 -65.285270 3.217792 -1.871996 1.916536 89.714596 132.676548 -139.203217 2.656059 -1.528761 1.514625 93.159020 151.316339 -146.759605 2.020894 -1.154080 1.115149 0.000003 0.000001 0.000004 9.109186 -0.517774 2.260098 55.302440 -156.693692 137.034522 3.700097 0.000052 -0.000291 158.996258 -25.185511 100.696010 2.850082 0.000290 0.000269 -52.021630 -170.175160 -520.023829 2.774889 -0.000006 -0.000027 -0.000003 0.000000 0.000002 9.533194 0.000044 0.000125 182.992857 -21.274859 195.804120 3.700085 0.000232 -0.000327 122.146623 -14.980937 26.760930 2.950028 0.000249 -0.000198 103.527554 -4.079972 5.179985 2.952869 -0.000035 0.000048 -0.000001 -0.000001 0.000002 9.104599 -0.042986 -1.865026 170.451564 -17.803072 123.874278 3.150024 0.000310 -0.000113 110.602394 -5.457278 7.877632 2.949953 0.000239 -0.000133 93.789883 4.983489 -5.322621 2.644323 0.000045 0.000049 -0.000001 -0.000002 -0.000002 8.077922 -0.486772 -3.806225 169.442390 -11.125552 97.951367 3.599932 0.000359 0.014553 114.464176 2.192866 -2.774896 2.099944 0.000258 0.007512 93.399552 10.474686 -10.765869 2.125473 -0.000030 0.007535 0.000000 -0.000004 0.000000 -8.207786 -6.751667 -1.599560 -0.077001 -0.000003 0.000080 -0.000002 -44.370110 0.345938 0.153719 -0.000000 -0.000000 0.000000 -44.423679 -3.043532 -0.076700 0.000000 -0.000002 -0.000006 -8.728667 10.710559 -0.000009 -0.000000 -0.000000 -0.000001 -0.000679 9.278123 0.000000 -0.000000 -0.000000 8.207792 -6.751710 -1.599556 -0.074518 -0.000003 0.000081 -0.000002 -44.370014 0.346960 0.148822 0.000002 0.000000 -0.000001 -44.423664 -3.044403 -0.074314 0.000000 -0.000002 -0.000004 -8.728671 10.710558 0.000007 -0.000000 -0.000000 0.000000 -0.000680 9.278137 -0.000000 0.000000 -0.000001 
0.000006 104.270477 1.554256 0.000010 0.000003 -0.000113 -0.000005 10.181587 0.131522 0.000001 -0.000003 0.000084 -0.000000 9.893967 -1.470711 0.000001 0.000000 -0.000000 -0.000000 9.220802 -1.370642 0.000000 -0.000000 -0.000000 0.000001 16.740433 -2.049030 0.000000 -0.000000 -0.000000 0.000000 9.617859 1.685014 0.000000 0.000000 0.000000 0.000002 22.037384 7.501101 0.000000 -0.000000 0.000000 -4.569968 11.014880 -2.160881 0.000008 0.000001 -0.000038 -10.592881 -0.524715 -2.231987 70.669099 16.503252 -11.740229 -27.841536 0.000012 0.000539 -54.911063 117.446892 81.083935 -28.328825 0.000005 0.000022 -0.000322 -0.000045 0.000006 -2.464402 -1.573873 2.682364 -36.830641 -153.007330 12.826212 -3.215230 -1.872486 1.924638 148.386488 34.453202 33.978958 -2.654960 -1.527845 1.513062 150.030706 26.906115 -32.215147 -2.018842 -1.152020 1.108064 -0.000002 -0.000003 0.000002 -9.108392 -0.517566 2.260168 108.383436 16.183650 -22.361227 -3.700070 0.000311 0.001555 105.017601 13.595200 -17.634884 -2.850075 0.000374 -0.000219 104.044477 10.314259 -13.188289 -2.772165 0.000000 -0.000022 0.000000 -0.000000 0.000000 -9.532598 0.000255 0.000300 105.789201 17.181095 -22.776494 -3.700075 0.000328 0.004030 106.889927 12.675678 -16.910911 -2.950067 0.000332 -0.001749 109.384933 11.167514 -15.708841 -2.946648 0.000000 -0.000157 0.000000 -0.000000 0.000000 -9.103712 -0.042761 -1.864803 104.528587 18.241820 -23.382651 -3.379333 0.000330 -0.000757 105.883389 9.560830 -12.661736 -2.889755 0.000352 0.000705 111.535439 6.403275 -9.466094 -2.638820 -0.000028 0.000940 -0.000000 -0.000000 -0.000002 -8.076777 -0.486401 -3.805963 99.382060 19.429755 -22.639338 -3.600041 0.000281 -0.003450 103.306857 8.299873 -10.033184 -2.100023 0.000321 -0.005422 106.152355 3.902992 -4.907367 -2.115772 -0.000043 -0.003679 -0.000000 0.000000 -0.000001 4.570446 11.014691 -2.160851 -0.000018 0.000010 -0.000021 10.592470 -0.524554 -2.232355 37.287813 -59.031563 21.627601 27.841732 -0.000095 -0.000089 227.658948 -69.367545 245.094918 28.328838 -0.000028 0.000019 0.000021 -0.000090 0.000001 2.466079 -1.576210 2.681864 12.639864 111.069429 -60.022685 3.217806 -1.872019 1.916526 83.986472 132.274509 -135.091675 2.656062 -1.528761 1.514636 89.640250 151.665539 -144.979467 2.020887 -1.154079 1.115146 0.000003 -0.000002 0.000001 9.109166 -0.517780 2.260078 48.864259 -156.211440 130.258784 3.700133 0.000106 -0.000326 147.253551 -24.046181 71.930450 2.850064 0.000306 0.000239 -63.128358 -170.375613 -524.396188 2.774892 -0.000048 -0.000023 -0.000000 0.000000 0.000001 9.533213 0.000028 0.000131 182.850038 -21.573446 194.845735 3.700079 0.000247 -0.000344 119.526671 -13.786506 23.430580 2.950022 0.000246 -0.000202 99.436660 -3.461776 4.087224 2.952869 -0.000027 0.000071 -0.000001 -0.000002 0.000002 9.104611 -0.042992 -1.865038 169.243154 -17.876919 118.203076 3.150031 0.000285 -0.000093 108.171536 -4.382681 6.050872 2.949943 0.000242 -0.000139 90.594550 5.627705 -5.684980 2.644319 0.000033 0.000056 0.000001 -0.000004 -0.000000 8.077902 -0.486759 -3.806216 169.139663 -10.955459 95.414280 3.599940 0.000317 0.014543 106.989552 4.507253 -5.563341 2.099967 0.000238 0.007496 84.470281 11.859117 -10.487557 2.125489 -0.000000 0.007515 -0.000001 0.000000 -0.000000 -8.207786 -6.751667 -1.599560 -0.077001 -0.000003 0.000080 -0.000002 -44.370110 0.345938 0.153719 -0.000000 -0.000000 0.000000 -44.423679 -3.043532 -0.076700 0.000000 -0.000002 -0.000006 -8.728667 10.710559 -0.000009 -0.000000 -0.000000 -0.000001 -0.000679 9.278123 0.000000 -0.000000 -0.000000 8.207792 -6.751710 -1.599556 -0.074518 -0.000003 0.000081 -0.000002 -44.370014 0.346960 0.148822 0.000002 0.000000 -0.000001 -44.423664 -3.044403 -0.074314 0.000000 -0.000002 -0.000004 -8.728671 10.710558 0.000007 -0.000000 -0.000000 0.000000 -0.000680 9.278137 -0.000000 0.000000 -0.000001 
0.000006 104.270477 1.554256 0.000010 0.000003 -0.000113 -0.000005 10.181587 0.131522 0.000001 -0.000003 0.000084 -0.000000 9.893967 -1.470711 0.000001 0.000000 -0.000000 -0.000000 9.220802 -1.370642 0.000000 -0.000000 -0.000000 0.000001 16.740433 -2.049030 0.000000 -0.000000 -0.000000 0.000000 9.617859 1.685014 0.000000 0.000000 0.000000 0.000002 22.037384 7.501101 0.000000 -0.000000 0.000000 -4.569968 11.014880 -2.160881 0.000008 0.000001 -0.000038 -10.592884 -0.524726 -2.231972 70.744074 18.453291 -13.156845 -27.841526 0.000015 0.000566 -54.476301 118.283140 81.492339 -28.328814 0.000023 0.000021 -0.000319 -0.000046 0.000007 -2.464410 -1.573885 2.682362 -33.468914 -151.322827 18.825576 -3.215228 -1.872498 1.924622 149.187000 34.656049 33.332484 -2.654961 -1.527883 1.513073 149.975450 26.691283 -34.100372 -2.018833 -1.152018 1.108060 -0.000000 0.000002 0.000002 -9.108392 -0.517572 2.260160 107.985093 17.031929 -23.348505 -3.700082 0.000312 0.001565 105.157463 14.374034 -18.685866 -2.850071 0.000370 -0.000216 104.797833 11.147537 -14.442457 -2.772179 -0.000001 -0.000019 0.000001 -0.000000 0.000000 -9.532606 0.000250 0.000295 105.601978 18.179955 -23.996206 -3.700097 0.000320 0.004020 106.461134 12.936852 -17.127025 -2.950049 0.000341 -0.001732 109.217416 11.500801 -16.125493 -2.946624 0.000015 -0.000155 0.000001 -0.000001 -0.000004 -9.103726 -0.042777 -1.864798 104.747856 19.026913 -24.472993 -3.379335 0.000307 -0.000766 105.863820 9.543673 -12.634675 -2.889747 0.000361 0.000703 111.701638 6.517947 -9.664082 -2.638812 -0.000012 0.000938 0.000001 -0.000000 -0.000002 -8.076789 -0.486406 -3.805974 99.611663 20.265914 -23.706034 -3.600040 0.000266 -0.003437 104.178738 9.057561 -11.155566 -2.100007 0.000325 -0.005424 106.922691 4.576748 -5.881789 -2.115775 -0.000012 -0.003681 0.000000 -0.000000 -0.000004 4.570446 11.014691 -2.160851 -0.000018 0.000010 -0.000021 10.592470 -0.524580 -2.232358 36.897891 -60.105876 21.849625 27.841726 -0.000071 -0.000084 227.871749 -68.939913 245.772473 28.328842 -0.000013 0.000025 0.000023 -0.000089 -0.000001 2.466070 -1.576183 2.681873 9.821231 117.314059 -60.686272 3.217814 -1.872016 1.916538 79.211473 131.783951 -131.494939 2.656075 -1.528780 1.514621 87.833548 147.429592 -142.449182 2.020902 -1.154052 1.115151 -0.000001 0.000003 0.000004 9.109182 -0.517775 2.260098 51.671409 -155.868414 132.366525 3.699742 0.000066 -0.000203 189.193808 -23.676453 222.010149 2.850136 0.000120 0.000383 -12.636843 -166.998398 -448.365910 2.774891 -0.000046 -0.000031 0.000002 0.000000 -0.000005 9.533372 0.000013 0.000113 171.691490 -24.601894 143.115290 3.700094 0.000251 -0.000319 119.739705 -14.952174 25.476577 2.950013 0.000240 -0.000201 104.843288 -2.998513 3.899442 2.952888 -0.000032 0.000060 -0.000001 0.000002 0.000000 9.104645 -0.042941 -1.865051 162.417104 -21.508428 101.699358 3.150038 0.000264 -0.000108 105.567014 -3.849791 5.069624 2.949931 0.000254 -0.000139 90.092244 8.803827 -8.816731 2.644325 0.000046 0.000059 -0.000002 0.000001 -0.000000 8.077929 -0.486770 -3.806234 164.480709 -15.712454 94.137635 3.599948 0.000315 0.014549 102.035868 2.359789 -2.414129 2.099951 0.000217 0.007500 78.998214 12.469765 -10.037479 2.125490 0.000001 0.007511 -0.000001 0.000000 -0.000001 -8.207786 -6.751667 -1.599560 -0.077001 -0.000003 0.000080 -0.000002 -44.370110 0.345938 0.153719 -0.000000 -0.000000 0.000000 -44.423679 -3.043532 -0.076700 0.000000 -0.000002 -0.000006 -8.728667 10.710559 -0.000009 -0.000000 -0.000000 -0.000001 -0.000679 9.278123 0.000000 -0.000000 -0.000000 8.207792 -6.751710 -1.599556 -0.074518 -0.000003 0.000081 -0.000002 -44.370014 0.346960 0.148822 0.000002 0.000000 -0.000001 -44.423664 -3.044403 -0.074314 0.000000 -0.000002 -0.000004 -8.728671 10.710558 0.000007 -0.000000 -0.000000 0.000000 -0.000680 9.278137 -0.000000 0.000000 -0.000001 
